<svg id="Icon_awesome-handshake" data-name="Icon awesome-handshake" xmlns="http://www.w3.org/2000/svg" width="341.741" height="219.612" viewBox="0 0 341.741 219.612">
  <path id="Icon_awesome-handshake-2" data-name="Icon awesome-handshake" d="M232.117,4.5H186.249a16.472,16.472,0,0,0-11.534,4.8L122.226,60.755c-.053.057-.107.172-.16.229A23.893,23.893,0,0,0,120.944,93c6.781,7.947,21.038,10.062,29.956,1.544.053-.057.16-.057.214-.114L193.778,52.58a8.187,8.187,0,0,1,12.068.572,9.6,9.6,0,0,1-.534,12.92L191.375,79.736l77.746,67.575a39.843,39.843,0,0,1,4.218,4.4V41.089L244.184,9.874A16.421,16.421,0,0,0,232.117,4.5ZM290.48,41.089V169.206c0,10.119,7.636,18.294,17.087,18.294h34.174V41.2ZM316.11,169.206c-4.7,0-8.543-4.116-8.543-9.147s3.845-9.147,8.543-9.147,8.544,4.116,8.544,9.147S320.809,169.206,316.11,169.206ZM0,187.444H34.174c9.451,0,17.087-8.175,17.087-18.294V41.2H0Zm25.631-36.532c4.7,0,8.544,4.116,8.544,9.147s-3.845,9.147-8.544,9.147-8.544-4.116-8.544-9.147C17.087,154.971,20.932,150.912,25.631,150.912Zm232.757,10.634-79.722-69.29-16.019,15.722c-15.859,15.493-40.155,14.007-54.3-2.515C93.979,88.654,95.1,62.642,110.692,47.32L154.371,4.5H109.624A16.51,16.51,0,0,0,97.556,9.874L68.348,41.089v128H78.12l48.324,46.822c14.631,12.749,36.15,10.348,48.057-5.317l.107-.114,9.558,8.861c8.49,7.432,21.038,6,27.927-3.087L228.86,194.19l2.883,2.515a16.307,16.307,0,0,0,24.029-2.687l5.073-6.689a19.224,19.224,0,0,0-2.456-25.784Z" transform="translate(0 -4.5)" fill="#3d4965"/>
</svg>
